# xmcd CD database file
#
# Track frame offsets:
#	150
#	12694
#	28867
#	42315
#	57065
#	70067
#	82971
#	97249
#	111010
#	126502
#	141632
#	155160
#
# Disc length: 2236 seconds
#
# Revision: 0
# Processed by: cddbd v1.5.1PL0 Copyright (c) Steve Scherf et al.
# Submitted via: CDex 1.51
#
DISCID=b208ba0c
DTITLE=Mike Brennan and Dave Tufford - Two for The Road
DYEAR=2002
DGENRE=Country
TTITLE0=Pay No Mind
TTITLE1=L.A. County
TTITLE2=Swinging Doors
TTITLE3=I'm So Lonesome I Could Cry
TTITLE4=I Saw The Light
TTITLE5=Rockabilly Ray
TTITLE6=He Stopped Loving Her Today
TTITLE7=Going Down The Road Feeling Bad
TTITLE8=Swing Low
TTITLE9=Tennessee Flat Top Box
TTITLE10=Walk Softly
TTITLE11=Mystery Train
EXTD=YEAR: 2002
EXTT0=
EXTT1=
EXTT2=
EXTT3=
EXTT4=
EXTT5=
EXTT6=
EXTT7=
EXTT8=
EXTT9=
EXTT10=
EXTT11=
PLAYORDER=
